<svg width="41" height="41" viewBox="0 0 41 41" fill="none" xmlns="http://www.w3.org/2000/svg">
<path fill-rule="evenodd" clip-rule="evenodd" d="M34.1667 0C35.979 0 37.7171 0.719939 38.9986 2.00144C40.2801 3.28294 41 5.02102 41 6.83333V34.1667C41 35.979 40.2801 37.7171 38.9986 38.9986C37.7171 40.2801 35.979 41 34.1667 41H6.83333C5.02102 41 3.28294 40.2801 2.00144 38.9986C0.719939 37.7171 0 35.979 0 34.1667V6.83333C0 5.02102 0.719939 3.28294 2.00144 2.00144C3.28294 0.719939 5.02102 0 6.83333 0H34.1667ZM11.3889 15.9444C10.7848 15.9444 10.2054 16.1844 9.77826 16.6116C9.35109 17.0388 9.11111 17.6181 9.11111 18.2222V29.6111C9.11111 30.2152 9.35109 30.7946 9.77826 31.2217C10.2054 31.6489 10.7848 31.8889 11.3889 31.8889C11.993 31.8889 12.5724 31.6489 12.9995 31.2217C13.4267 30.7946 13.6667 30.2152 13.6667 29.6111V18.2222C13.6667 17.6181 13.4267 17.0388 12.9995 16.6116C12.5724 16.1844 11.993 15.9444 11.3889 15.9444ZM18.2222 13.6667C17.6181 13.6667 17.0388 13.9066 16.6116 14.3338C16.1844 14.761 15.9444 15.3403 15.9444 15.9444V29.6111C15.9444 30.2152 16.1844 30.7946 16.6116 31.2217C17.0388 31.6489 17.6181 31.8889 18.2222 31.8889C18.8263 31.8889 19.4057 31.6489 19.8329 31.2217C20.26 30.7946 20.5 30.2152 20.5 29.6111V21.2744C21.1947 20.4909 22.3678 19.5707 23.6729 19.0126C24.4314 18.6892 25.5726 18.5571 26.3653 18.8076C26.6282 18.8743 26.8624 19.0246 27.0327 19.2358C27.1511 19.3953 27.3333 19.7506 27.3333 20.5V29.6111C27.3333 30.2152 27.5733 30.7946 28.0005 31.2217C28.4276 31.6489 29.007 31.8889 29.6111 31.8889C30.2152 31.8889 30.7946 31.6489 31.2217 31.2217C31.6489 30.7946 31.8889 30.2152 31.8889 29.6111V20.5C31.8889 18.9739 31.5017 17.6163 30.6953 16.5276C29.9534 15.5403 28.9149 14.8163 27.7319 14.4616C25.6774 13.817 23.4019 14.1746 21.8826 14.8261C21.3962 15.0353 20.9224 15.2725 20.4636 15.5367C20.3681 15.0119 20.0914 14.5372 19.6818 14.1955C19.2722 13.8537 18.7557 13.6666 18.2222 13.6667ZM11.3889 9.11111C10.7848 9.11111 10.2054 9.35109 9.77826 9.77826C9.35109 10.2054 9.11111 10.7848 9.11111 11.3889C9.11111 11.993 9.35109 12.5724 9.77826 12.9995C10.2054 13.4267 10.7848 13.6667 11.3889 13.6667C11.993 13.6667 12.5724 13.4267 12.9995 12.9995C13.4267 12.5724 13.6667 11.993 13.6667 11.3889C13.6667 10.7848 13.4267 10.2054 12.9995 9.77826C12.5724 9.35109 11.993 9.11111 11.3889 9.11111Z" fill="white"/>
</svg>
